<svg width="1440" height="479" viewBox="0 0 1440 479" fill="none" xmlns="http://www.w3.org/2000/svg">
<path d="M238 84.0554C238 73.5557 246.538 64.9364 256.975 66.0812C293.82 70.1225 328.598 85.8562 356.068 111.231C388.215 140.927 407.991 181.647 411.454 225.274C414.918 268.9 401.814 312.23 374.755 346.626C347.697 381.022 308.67 403.959 265.454 410.864C222.239 417.77 178.008 408.136 141.578 383.885C105.148 359.633 79.1949 322.544 68.8912 280.01C58.5876 237.476 64.6902 192.622 85.9828 154.387C104.177 121.715 132.321 95.9275 166.072 80.6061C175.633 76.2659 186.431 81.7956 189.703 91.7725V91.7725C192.975 101.749 187.458 112.373 178.034 117.003C153.328 129.143 132.74 148.576 119.202 172.887C102.562 202.766 97.7932 237.819 105.845 271.058C113.897 304.297 134.179 333.281 162.648 352.234C191.117 371.186 225.683 378.714 259.455 373.318C293.227 367.921 323.726 349.997 344.871 323.117C366.017 296.237 376.257 262.376 373.551 228.283C370.844 194.189 355.389 162.368 330.267 139.161C309.828 120.28 284.21 108.23 256.95 104.393C246.553 102.93 238 94.5551 238 84.0554V84.0554Z" fill="#FFC700"/>
<path d="M720 84.0554C720 73.5557 728.537 64.9364 738.974 66.0813C771.69 69.67 802.861 82.4859 828.755 103.219C859.617 127.931 881.143 162.415 889.789 200.994C898.434 239.573 893.684 279.947 876.319 315.465C858.955 350.984 830.012 379.53 794.257 396.403C758.503 413.276 718.068 417.469 679.611 408.292C641.155 399.115 606.971 377.115 582.688 345.915C558.405 314.715 545.471 276.176 546.017 236.643C546.474 203.475 556.398 171.266 574.427 143.731C580.178 134.947 592.259 133.836 600.364 140.512V140.512C608.469 147.187 609.496 159.113 604.015 168.069C591.334 188.792 584.374 212.644 584.036 237.168C583.61 268.061 593.717 298.179 612.694 322.561C631.67 346.943 658.385 364.136 688.437 371.307C718.49 378.479 750.089 375.202 778.031 362.016C805.972 348.831 828.59 326.523 842.16 298.766C855.73 271.009 859.442 239.458 852.686 209.309C845.93 179.16 829.108 152.211 804.99 132.9C785.845 117.57 763.008 107.779 738.95 104.394C728.553 102.93 720 94.5551 720 84.0554V84.0554Z" fill="#0047FF"/>
<path d="M1202 84.0554C1202 73.5557 1210.54 64.9365 1220.97 66.0815C1246.41 68.872 1271 77.2495 1292.95 90.7071C1320.32 107.488 1342.51 131.514 1357.07 160.126C1371.64 188.739 1378 220.821 1375.45 252.825C1372.91 284.828 1361.56 315.504 1342.67 341.458C1323.77 367.412 1298.06 387.632 1268.39 399.881C1238.71 412.13 1206.23 415.93 1174.53 410.861C1142.82 405.792 1113.14 392.051 1088.77 371.158C1069.22 354.404 1053.69 333.574 1043.22 310.223C1038.93 300.642 1044.51 289.871 1054.5 286.646V286.646C1064.49 283.421 1075.09 288.988 1079.68 298.433C1087.8 315.158 1099.29 330.102 1113.51 342.288C1132.56 358.615 1155.76 369.354 1180.53 373.315C1205.3 377.277 1230.69 374.307 1253.88 364.735C1277.07 355.162 1297.16 339.361 1311.93 319.078C1326.7 298.796 1335.56 274.823 1337.55 249.813C1339.54 224.803 1334.57 199.731 1323.19 177.372C1311.81 155.012 1294.46 136.236 1273.08 123.122C1257.11 113.334 1239.36 106.985 1220.95 104.394C1210.55 102.93 1202 94.5551 1202 84.0554V84.0554Z" fill="#DBFF00"/>
<path d="M193.399 222.944H201.175V256.544H193.399V222.944ZM178.135 256.544H170.359V222.944H178.135V256.544ZM193.975 242.768H177.559V236.192H193.975V242.768ZM216.085 256.544V229.28H205.333V222.944H234.613V229.28H223.861V256.544H216.085ZM238.797 256.544V222.944H245.229L259.533 246.656H256.125L270.189 222.944H276.573L276.669 256.544H269.373L269.325 234.128H270.669L259.437 252.992H255.933L244.461 234.128H246.093V256.544H238.797ZM284.64 256.544V222.944H292.416V250.208H309.264V256.544H284.64Z" fill="white"/>
<path d="M691.947 257.12C689.355 257.12 686.939 256.704 684.699 255.872C682.491 255.008 680.571 253.792 678.939 252.224C677.307 250.656 676.027 248.816 675.099 246.704C674.203 244.592 673.755 242.272 673.755 239.744C673.755 237.216 674.203 234.896 675.099 232.784C676.027 230.672 677.307 228.832 678.939 227.264C680.603 225.696 682.539 224.496 684.747 223.664C686.955 222.8 689.371 222.368 691.995 222.368C694.907 222.368 697.531 222.88 699.867 223.904C702.235 224.896 704.219 226.368 705.819 228.32L700.827 232.928C699.675 231.616 698.395 230.64 696.987 230C695.579 229.328 694.043 228.992 692.379 228.992C690.811 228.992 689.371 229.248 688.059 229.76C686.747 230.272 685.611 231.008 684.651 231.968C683.691 232.928 682.939 234.064 682.395 235.376C681.883 236.688 681.627 238.144 681.627 239.744C681.627 241.344 681.883 242.8 682.395 244.112C682.939 245.424 683.691 246.56 684.651 247.52C685.611 248.48 686.747 249.216 688.059 249.728C689.371 250.24 690.811 250.496 692.379 250.496C694.043 250.496 695.579 250.176 696.987 249.536C698.395 248.864 699.675 247.856 700.827 246.512L705.819 251.12C704.219 253.072 702.235 254.56 699.867 255.584C697.531 256.608 694.891 257.12 691.947 257.12ZM721.922 257.12C719.234 257.12 716.658 256.768 714.194 256.064C711.73 255.328 709.746 254.384 708.242 253.232L710.882 247.376C712.322 248.4 714.018 249.248 715.97 249.92C717.954 250.56 719.954 250.88 721.97 250.88C723.506 250.88 724.738 250.736 725.666 250.448C726.626 250.128 727.33 249.696 727.778 249.152C728.226 248.608 728.45 247.984 728.45 247.28C728.45 246.384 728.098 245.68 727.394 245.168C726.69 244.624 725.762 244.192 724.61 243.872C723.458 243.52 722.178 243.2 720.77 242.912C719.394 242.592 718.002 242.208 716.594 241.76C715.218 241.312 713.954 240.736 712.802 240.032C711.65 239.328 710.706 238.4 709.97 237.248C709.266 236.096 708.914 234.624 708.914 232.832C708.914 230.912 709.426 229.168 710.45 227.6C711.506 226 713.074 224.736 715.154 223.808C717.266 222.848 719.906 222.368 723.074 222.368C725.186 222.368 727.266 222.624 729.314 223.136C731.362 223.616 733.17 224.352 734.738 225.344L732.338 231.248C730.77 230.352 729.202 229.696 727.634 229.28C726.066 228.832 724.53 228.608 723.026 228.608C721.522 228.608 720.29 228.784 719.33 229.136C718.37 229.488 717.682 229.952 717.266 230.528C716.85 231.072 716.642 231.712 716.642 232.448C716.642 233.312 716.994 234.016 717.698 234.56C718.402 235.072 719.33 235.488 720.482 235.808C721.634 236.128 722.898 236.448 724.274 236.768C725.682 237.088 727.074 237.456 728.45 237.872C729.858 238.288 731.138 238.848 732.29 239.552C733.442 240.256 734.37 241.184 735.074 242.336C735.81 243.488 736.178 244.944 736.178 246.704C736.178 248.592 735.65 250.32 734.594 251.888C733.538 253.456 731.954 254.72 729.842 255.68C727.762 256.64 725.122 257.12 721.922 257.12ZM752.532 257.12C749.844 257.12 747.268 256.768 744.804 256.064C742.34 255.328 740.356 254.384 738.852 253.232L741.492 247.376C742.932 248.4 744.628 249.248 746.58 249.92C748.564 250.56 750.564 250.88 752.58 250.88C754.116 250.88 755.348 250.736 756.276 250.448C757.236 250.128 757.94 249.696 758.388 249.152C758.836 248.608 759.06 247.984 759.06 247.28C759.06 246.384 758.708 245.68 758.004 245.168C757.3 244.624 756.372 244.192 755.22 243.872C754.068 243.52 752.788 243.2 751.38 242.912C750.004 242.592 748.612 242.208 747.204 241.76C745.828 241.312 744.564 240.736 743.412 240.032C742.26 239.328 741.316 238.4 740.58 237.248C739.876 236.096 739.524 234.624 739.524 232.832C739.524 230.912 740.036 229.168 741.06 227.6C742.116 226 743.684 224.736 745.764 223.808C747.876 222.848 750.516 222.368 753.684 222.368C755.796 222.368 757.876 222.624 759.924 223.136C761.972 223.616 763.78 224.352 765.348 225.344L762.948 231.248C761.38 230.352 759.812 229.696 758.244 229.28C756.676 228.832 755.14 228.608 753.636 228.608C752.132 228.608 750.9 228.784 749.94 229.136C748.98 229.488 748.292 229.952 747.876 230.528C747.46 231.072 747.252 231.712 747.252 232.448C747.252 233.312 747.604 234.016 748.308 234.56C749.012 235.072 749.94 235.488 751.092 235.808C752.244 236.128 753.508 236.448 754.884 236.768C756.292 237.088 757.684 237.456 759.06 237.872C760.468 238.288 761.748 238.848 762.9 239.552C764.052 240.256 764.98 241.184 765.684 242.336C766.42 243.488 766.788 244.944 766.788 246.704C766.788 248.592 766.26 250.32 765.204 251.888C764.148 253.456 762.564 254.72 760.452 255.68C758.372 256.64 755.732 257.12 752.532 257.12Z" fill="white"/>
<path d="M1183.89 257.12C1181.61 257.12 1179.52 256.704 1177.6 255.872C1175.71 255.008 1174.16 253.792 1172.94 252.224L1177.26 247.04C1178.19 248.256 1179.17 249.184 1180.19 249.824C1181.21 250.432 1182.32 250.736 1183.5 250.736C1186.67 250.736 1188.25 248.88 1188.25 245.168V229.184H1176.45V222.944H1195.98V244.736C1195.98 248.896 1194.96 252 1192.91 254.048C1190.86 256.096 1187.85 257.12 1183.89 257.12ZM1214.7 257.12C1212.02 257.12 1209.44 256.768 1206.98 256.064C1204.51 255.328 1202.53 254.384 1201.02 253.232L1203.66 247.376C1205.1 248.4 1206.8 249.248 1208.75 249.92C1210.74 250.56 1212.74 250.88 1214.75 250.88C1216.29 250.88 1217.52 250.736 1218.45 250.448C1219.41 250.128 1220.11 249.696 1220.56 249.152C1221.01 248.608 1221.23 247.984 1221.23 247.28C1221.23 246.384 1220.88 245.68 1220.18 245.168C1219.47 244.624 1218.54 244.192 1217.39 243.872C1216.24 243.52 1214.96 243.2 1213.55 242.912C1212.18 242.592 1210.78 242.208 1209.38 241.76C1208 241.312 1206.74 240.736 1205.58 240.032C1204.43 239.328 1203.49 238.4 1202.75 237.248C1202.05 236.096 1201.7 234.624 1201.7 232.832C1201.7 230.912 1202.21 229.168 1203.23 227.6C1204.29 226 1205.86 224.736 1207.94 223.808C1210.05 222.848 1212.69 222.368 1215.86 222.368C1217.97 222.368 1220.05 222.624 1222.1 223.136C1224.14 223.616 1225.95 224.352 1227.52 225.344L1225.12 231.248C1223.55 230.352 1221.98 229.696 1220.42 229.28C1218.85 228.832 1217.31 228.608 1215.81 228.608C1214.3 228.608 1213.07 228.784 1212.11 229.136C1211.15 229.488 1210.46 229.952 1210.05 230.528C1209.63 231.072 1209.42 231.712 1209.42 232.448C1209.42 233.312 1209.78 234.016 1210.48 234.56C1211.18 235.072 1212.11 235.488 1213.26 235.808C1214.42 236.128 1215.68 236.448 1217.06 236.768C1218.46 237.088 1219.86 237.456 1221.23 237.872C1222.64 238.288 1223.92 238.848 1225.07 239.552C1226.22 240.256 1227.15 241.184 1227.86 242.336C1228.59 243.488 1228.96 244.944 1228.96 246.704C1228.96 248.592 1228.43 250.32 1227.38 251.888C1226.32 253.456 1224.74 254.72 1222.62 255.68C1220.54 256.64 1217.9 257.12 1214.7 257.12Z" fill="white"/>
</svg>
