<svg width="203" height="288" viewBox="0 0 203 288" fill="none" xmlns="http://www.w3.org/2000/svg">
<g clip-path="url(#clip0_1510_79)">
<path d="M203 56.5986L184.506 264.836L101.376 288L18.4742 264.868L0 56.5986H203Z" fill="#264DE4"/>
<path d="M168.673 251.576L184.478 73.6279H101.5V270.294L168.673 251.576Z" fill="#2965F1"/>
<path d="M42.3518 150.872L44.6295 176.415H101.5V150.872H42.3518Z" fill="#EBEBEB"/>
<path d="M101.5 99.1716H101.412H37.7751L40.0853 124.715H101.5V99.1716Z" fill="#EBEBEB"/>
<path d="M101.5 243.787V217.211L101.389 217.241L73.0853 209.559L71.276 189.187H57.5229H45.7649L49.3253 229.294L101.383 243.82L101.5 243.787Z" fill="#EBEBEB"/>
<path d="M47.7747 0H78.5548V12.9375H60.6463V25.875H78.5548V38.8125H47.7747V0Z" fill="black"/>
<path d="M84.7107 0H115.491V11.25H97.5824V13.5H115.491V39.375H84.7107V27.5625H102.619V25.3125H84.7107V0Z" fill="black"/>
<path d="M121.647 0H152.427V11.25H134.519V13.5H152.427V39.375H121.647V27.5625H139.555V25.3125H121.647V0Z" fill="black"/>
<path d="M132.706 176.415L129.756 209.543L101.412 217.233V243.807L153.511 229.294L153.893 224.979L159.865 157.731L160.485 150.872L165.073 99.1716H101.412V124.715H137.222L134.91 150.872H101.412V176.415H132.706Z" fill="white"/>
</g>
<defs>
<clipPath id="clip0_1510_79">
<rect width="203" height="288" fill="white"/>
</clipPath>
</defs>
</svg>
